<svg width="36" height="36" viewBox="0 0 36 36" fill="none" xmlns="http://www.w3.org/2000/svg">
<circle cx="18" cy="18" r="12" fill="white"/>
<path fill-rule="evenodd" clip-rule="evenodd" d="M18 33C26.2843 33 33 26.2843 33 18C33 9.71573 26.2843 3 18 3C9.71573 3 3 9.71573 3 18C3 26.2843 9.71573 33 18 33ZM22.2085 24.7924H23.7835L23.8 20.8821H22.2333V11H15.051L14.7871 15.7395C14.7102 16.8197 14.5178 17.8138 14.2099 18.7216C13.9076 19.6244 13.498 20.3445 12.9813 20.8821H12L12.0082 24.8H13.5915V22.0765H22.2085V24.7924ZM20.6418 20.8821H14.7871C15.2049 20.3344 15.5595 19.6117 15.8509 18.714C16.1477 17.8163 16.3319 16.731 16.4034 15.458L16.5765 12.202H20.6418V20.8821Z" fill="#E2001A"/>
</svg>
