<svg width="36" height="36" viewBox="0 0 36 36" fill="none" xmlns="http://www.w3.org/2000/svg">
<circle cx="18" cy="18" r="12" fill="white"/>
<path fill-rule="evenodd" clip-rule="evenodd" d="M18 33C26.2843 33 33 26.2843 33 18C33 9.71573 26.2843 3 18 3C9.71573 3 3 9.71573 3 18C3 26.2843 9.71573 33 18 33ZM15.9481 22.6876C15.4021 22.2386 15.0393 21.4607 14.8594 20.3537H13C13.1734 21.7743 13.7194 22.8721 14.6378 23.6469C15.5627 24.4156 16.7895 24.8 18.3181 24.8C19.3971 24.8 20.3509 24.5479 21.1795 24.0436C22.0145 23.5332 22.6599 22.8044 23.116 21.8574C23.572 20.9103 23.8 19.8187 23.8 18.5826V17.2451C23.8 16.009 23.5688 14.9174 23.1063 13.9703C22.6503 13.0171 21.992 12.2853 21.1313 11.7749C20.2771 11.2583 19.2847 11 18.1543 11C16.6642 11 15.4696 11.3997 14.5704 12.1992C13.6712 12.9925 13.1477 14.0933 13 15.5016H14.8594C15.02 14.4316 15.3668 13.6567 15.8999 13.177C16.4394 12.6973 17.1909 12.4575 18.1543 12.4575C19.349 12.4575 20.2771 12.8818 20.9386 13.7305C21.6066 14.5791 21.9406 15.7322 21.9406 17.1897H16.4202V18.6472H21.9406C21.9277 20.1231 21.597 21.2762 20.9483 22.1064C20.306 22.9366 19.4293 23.3517 18.3181 23.3517C17.2905 23.3517 16.5004 23.1303 15.9481 22.6876Z" fill="#E2001A"/>
</svg>
