<svg width="36" height="36" viewBox="0 0 36 36" fill="none" xmlns="http://www.w3.org/2000/svg">
<circle cx="18" cy="18" r="12" fill="white"/>
<path fill-rule="evenodd" clip-rule="evenodd" d="M18 33C26.2843 33 33 26.2843 33 18C33 9.71573 26.2843 3 18 3C9.71573 3 3 9.71573 3 18C3 26.2843 9.71573 33 18 33ZM22.3851 21.7836C22.795 20.7996 23 19.6496 23 18.3336V17.4849C23 16.175 22.795 15.0281 22.3851 14.0441C21.9752 13.054 21.3888 12.3007 20.626 11.7841C19.8688 11.2614 18.992 11 17.9957 11C17.0165 11 16.1455 11.2644 15.3826 11.7933C14.6254 12.316 14.039 13.0725 13.6234 14.0626C13.2078 15.0527 13 16.1934 13 17.4849V18.4535C13.0114 19.7203 13.2249 20.8365 13.6405 21.802C14.0618 22.7614 14.651 23.5024 15.4082 24.0251C16.1654 24.5417 17.0336 24.8 18.0128 24.8C19.0148 24.8 19.8915 24.5417 20.643 24.0251C21.3945 23.5086 21.9752 22.7614 22.3851 21.7836ZM20.4808 13.8043C21.0729 14.6529 21.3689 15.8737 21.3689 17.4664V18.4627C21.3518 20.0186 21.0529 21.2147 20.4722 22.0511C19.8915 22.8813 19.0717 23.2964 18.0128 23.2964C16.9596 23.2964 16.1312 22.8567 15.5278 21.9773C14.93 21.0917 14.6311 19.8771 14.6311 18.3336V17.3465C14.6482 15.8337 14.9527 14.6529 15.5448 13.8043C16.1426 12.9495 16.9596 12.5221 17.9957 12.5221C19.0603 12.5221 19.8887 12.9495 20.4808 13.8043Z" fill="#E2001A"/>
</svg>
