<svg width="30" height="30" viewBox="0 0 30 30" fill="none" xmlns="http://www.w3.org/2000/svg">
<g clip-path="url(#clip0)">
<path d="M10.7561 26.7073C9.65854 26.7073 9.29268 26.3414 9.29268 25.2439C9.29268 24.5122 9.65854 23.7805 10.7561 23.7805C11.4878 23.7805 12.2195 24.5122 12.2195 25.2439C12.2195 26.3414 11.4878 26.7073 10.7561 26.7073ZM15.1463 5.48777C15.1463 3.6585 14.4146 2.19509 13.3171 1.46338C12.9512 1.46338 12.9512 1.46338 12.9512 1.46338V5.12192C12.9512 5.85362 12.5854 6.21948 12.2195 6.21948C11.8537 6.58533 11.122 6.58533 10.7561 6.58533C10.0244 6.58533 9.65854 6.58533 9.29268 6.21948C8.56098 6.21948 8.56098 5.85362 8.56098 5.12192V1.46338H8.19512C6.73171 2.19509 6 3.6585 6 5.48777C6 7.31704 7.09756 9.14631 8.92683 9.87801V22.6829C7.82927 23.0487 7.09756 24.1463 7.09756 25.2439C7.09756 27.0731 8.56098 28.9024 10.3902 28.9024C12.5854 28.9024 14.0488 27.439 14.0488 25.2439C14.0488 24.1463 13.3171 23.0487 12.5854 22.6829V9.51216C14.0488 9.14631 15.1463 7.31704 15.1463 5.48777Z" fill="#303030"/>
<path d="M20.6343 6.21951V15.7317C20.6343 15.7317 20.6343 16.0976 21.0001 16.0976H21.7319C22.0977 16.0976 22.0977 15.7317 22.0977 15.7317V6.21951C22.0977 5.4878 22.4636 4.7561 22.8294 4.39024C22.8294 4.02439 22.8294 4.02439 22.8294 3.65854L22.0977 0H20.6343H20.2684L19.9026 3.65854C19.9026 4.02439 19.9026 4.02439 19.9026 4.39024C20.2684 4.7561 20.6343 5.4878 20.6343 6.21951Z" fill="#303030"/>
<path d="M24.6586 17.9268V16.8292C24.6586 16.4634 24.2928 16.4634 23.9269 16.4634H18.4391C18.0732 16.4634 18.0732 16.4634 18.0732 16.8292V17.9268V18.2926C19.1708 19.3902 19.1708 20.8536 18.0732 21.9512V22.317V28.9024C18.0732 29.2683 18.0732 29.6341 18.4391 29.6341C19.1708 30 20.2684 30 21.3659 30C22.4635 30 23.561 30 24.2928 29.6341C24.6586 29.6341 24.6586 29.2683 24.6586 28.9024V22.317V21.9512C23.561 20.8536 23.561 19.3902 24.6586 18.2926V17.9268Z" fill="#303030"/>
</g>
<defs>
<clipPath id="clip0">
<rect width="30" height="30" fill="white"/>
</clipPath>
</defs>
</svg>
