<svg width="24" height="24" viewBox="0 0 24 24" fill="none" xmlns="http://www.w3.org/2000/svg">
<path d="M15.7241 16.1379C15.7241 16.3665 15.5389 16.5517 15.3103 16.5517H8.68966C8.46113 16.5517 8.27586 16.3665 8.27586 16.1379C8.27586 15.9094 8.46113 15.7241 8.68966 15.7241H15.3103C15.5389 15.7241 15.7241 15.9094 15.7241 16.1379ZM15.3103 18.2069H8.68966C8.46113 18.2069 8.27586 18.3922 8.27586 18.6207C8.27586 18.8492 8.46113 19.0345 8.68966 19.0345H15.3103C15.5389 19.0345 15.7241 18.8492 15.7241 18.6207C15.7241 18.3922 15.5389 18.2069 15.3103 18.2069ZM13.6552 20.6897H8.68966C8.46113 20.6897 8.27586 20.8749 8.27586 21.1034C8.27586 21.332 8.46113 21.5172 8.68966 21.5172H13.6552C13.8837 21.5172 14.069 21.332 14.069 21.1034C14.069 20.8749 13.8837 20.6897 13.6552 20.6897ZM24 9.51724V16.1379C24 17.2806 23.0737 18.2069 21.931 18.2069H17.3793V23.5862C17.3793 23.8147 17.194 24 16.9655 24H7.03448C6.80595 24 6.62069 23.8147 6.62069 23.5862V18.2069H2.06897C0.926309 18.2069 0 17.2806 0 16.1379V9.51724C0 8.37459 0.926309 7.44828 2.06897 7.44828H6.62069V0.413793C6.62069 0.185263 6.80595 0 7.03448 0H14.5903C14.6616 0.0154014 14.7273 0.0497048 14.7807 0.0993104L17.2634 2.58207C17.3131 2.63544 17.3474 2.70119 17.3628 2.77241V2.82207C17.3638 2.8386 17.3638 2.85519 17.3628 2.87172V7.42345H21.931C22.4841 7.42341 23.0141 7.64479 23.4029 8.03819C23.7916 8.43158 24.0066 8.96423 24 9.51724ZM14.8966 2.48276H15.9641L14.8966 1.41517V2.48276ZM7.44828 7.44828H16.5517V3.31034H14.4828C14.2542 3.31034 14.069 3.12508 14.069 2.89655V0.827586H7.44828V7.44828ZM19.0345 13.6552C19.0345 13.4266 18.8492 13.2414 18.6207 13.2414H5.37931C5.15078 13.2414 4.96552 13.4266 4.96552 13.6552C4.96552 13.8837 5.15078 14.069 5.37931 14.069H7.03448C7.26301 14.069 7.44828 14.2542 7.44828 14.4828V23.1724H16.5517V14.4828C16.5517 14.2542 16.737 14.069 16.9655 14.069H18.6207C18.8492 14.069 19.0345 13.8837 19.0345 13.6552ZM21.5172 9.93104C21.5172 9.47398 21.1467 9.10345 20.6897 9.10345C20.2326 9.10345 19.8621 9.47398 19.8621 9.93104C19.8621 10.3881 20.2326 10.7586 20.6897 10.7586C21.1467 10.7586 21.5172 10.3881 21.5172 9.93104Z" fill="#0066CC"/>
</svg>
