<svg width="704" height="444" viewBox="0 0 704 444" xmlns="http://www.w3.org/2000/svg">
    <path fill-rule="evenodd" clip-rule="evenodd" d="M163 48.5V295c0 4.535-9.107 12.627-17.605 20.177C137.964 321.78 131 327.968 131 331c0 2.893 4.203 2.434 9.422 1.864 6.508-.71 14.595-1.593 18.078 3.636 8.552 12.838-3 49.5-3 49.5H108c-11.98 0-13.83-22.073-15.186-38.254-.795-9.48-1.42-16.938-3.814-16.746-50 4-71-15.5-88.5-36V48.5C3.667 32.333 24.5 0 82.5 0s77.833 32.333 80.5 48.5zm-89 16h15V281H74V64.5zm288-57h73.5v329H362V7.5zm-179.5 57h71V288H272V64.5h72v272h-72v-15h-9v15h-52c-28.5 0-28.5-48.5-28.5-48.5V64.5zm351.5 0h-79.5v272H534v-272zm-79.5-16H528v-41h-73.5v41zm154.5 16h-56.5l26 131.5-26 140.5H609l9.5-90.5h8.5l9 90.5h66L668 196l23.5-131.5H636l-9 83h-8.5l-9.5-83zM338.379 416.145c2.279 2.278 3.418 5.403 3.418 9.375 0 4.036-1.367 7.259-4.102 9.668-2.702 2.408-6.299 3.613-10.791 3.613-5.143 0-9.228-1.433-12.256-4.297-3.027-2.865-4.541-6.803-4.541-11.816h-5.566c0 4.361.96 8.154 2.881 11.376 1.953 3.191 4.639 5.648 8.057 7.374 3.45 1.692 7.259 2.539 11.425 2.539 6.185 0 11.149-1.693 14.893-5.079 3.776-3.418 5.664-7.91 5.664-13.476 0-3.483-.651-6.511-1.953-9.082-1.302-2.572-3.32-4.802-6.055-6.69-2.734-1.92-6.771-3.759-12.109-5.517-5.339-1.791-9.229-3.825-11.67-6.104-2.442-2.278-3.662-5.208-3.662-8.789 0-3.841 1.286-6.966 3.857-9.375 2.604-2.441 6.152-3.662 10.645-3.662 4.622 0 8.268 1.481 10.937 4.443 2.702 2.93 4.053 6.788 4.053 11.573h5.615c0-6.25-1.92-11.361-5.762-15.332-3.841-3.972-8.789-5.957-14.843-5.957-5.925 0-10.759 1.709-14.502 5.127-3.744 3.418-5.616 7.845-5.616 13.281 0 5.501 1.905 9.928 5.713 13.281 2.898 2.572 7.439 4.899 13.623 6.983 6.185 2.083 10.401 4.264 12.647 6.543zm61.178-44.239l-17.725 38.672-17.627-38.672h-6.543L379 416.242V443h5.566v-26.758l21.387-44.336h-6.396zm50.045 44.239c2.278 2.278 3.418 5.403 3.418 9.375 0 4.036-1.368 7.259-4.102 9.668-2.702 2.408-6.299 3.613-10.791 3.613-5.143 0-9.229-1.433-12.256-4.297-3.027-2.865-4.541-6.803-4.541-11.816h-5.566c0 4.361.96 8.154 2.881 11.376 1.953 3.191 4.638 5.648 8.056 7.374 3.451 1.692 7.259 2.539 11.426 2.539 6.185 0 11.149-1.693 14.893-5.079 3.776-3.418 5.664-7.91 5.664-13.476 0-3.483-.651-6.511-1.954-9.082-1.302-2.572-3.32-4.802-6.054-6.69-2.735-1.92-6.771-3.759-12.11-5.517-5.338-1.791-9.228-3.825-11.67-6.104-2.441-2.278-3.662-5.208-3.662-8.789 0-3.841 1.286-6.966 3.858-9.375 2.604-2.441 6.152-3.662 10.644-3.662 4.623 0 8.269 1.481 10.938 4.443 2.702 2.93 4.053 6.788 4.053 11.573h5.615c0-6.25-1.921-11.361-5.762-15.332-3.841-3.972-8.789-5.957-14.844-5.957-5.924 0-10.758 1.709-14.502 5.127-3.743 3.418-5.615 7.845-5.615 13.281 0 5.501 1.904 9.928 5.713 13.281 2.897 2.572 7.438 4.899 13.623 6.983 6.185 2.083 10.4 4.264 12.647 6.543zm46.236-38.965h20.215v-5.274h-45.996v5.274h20.166V443h5.615v-65.82zm41.256 31.787h27.588v-5.176h-27.588V377.18h31.494v-5.274h-37.061V443h37.305v-5.176h-31.738v-28.857zm77.047 25.488l-21.534-62.549h-7.373V443h5.567v-31.006l-.489-30.517L611.992 443h4.297l21.777-61.816-.488 31.005V443h5.567v-71.094h-7.374l-21.63 62.549zm79.879-18.31c2.278 2.278 3.418 5.403 3.418 9.375 0 4.036-1.368 7.259-4.102 9.668-2.702 2.408-6.299 3.613-10.791 3.613-5.143 0-9.229-1.433-12.256-4.297-3.027-2.865-4.541-6.803-4.541-11.816h-5.566c0 4.361.96 8.154 2.88 11.376 1.954 3.191 4.639 5.648 8.057 7.374 3.451 1.692 7.259 2.539 11.426 2.539 6.185 0 11.149-1.693 14.893-5.079 3.776-3.418 5.664-7.91 5.664-13.476 0-3.483-.651-6.511-1.954-9.082-1.302-2.572-3.32-4.802-6.054-6.69-2.735-1.92-6.771-3.759-12.11-5.517-5.338-1.791-9.228-3.825-11.67-6.104-2.441-2.278-3.662-5.208-3.662-8.789 0-3.841 1.286-6.966 3.858-9.375 2.604-2.441 6.152-3.662 10.644-3.662 4.623 0 8.269 1.481 10.938 4.443 2.702 2.93 4.053 6.788 4.053 11.573h5.615c0-6.25-1.921-11.361-5.762-15.332-3.841-3.972-8.789-5.957-14.844-5.957-5.924 0-10.758 1.709-14.502 5.127-3.743 3.418-5.615 7.845-5.615 13.281 0 5.501 1.904 9.928 5.713 13.281 2.897 2.572 7.438 4.899 13.623 6.983 6.185 2.083 10.4 4.264 12.647 6.543z"/>
</svg>
