<svg width="36" height="36" viewBox="0 0 36 36" fill="none" xmlns="http://www.w3.org/2000/svg">
<circle cx="18" cy="18" r="12" fill="white"/>
<path fill-rule="evenodd" clip-rule="evenodd" d="M18 33C26.2843 33 33 26.2843 33 18C33 9.71573 26.2843 3 18 3C9.71573 3 3 9.71573 3 18C3 26.2843 9.71573 33 18 33ZM19.0449 12.8299H18.7837V11H17.2163V12.8299H16.9803C16.0421 12.8299 15.1882 13.055 14.4185 13.5051C13.6545 13.9552 13.059 14.577 12.632 15.3706C12.2107 16.1641 12 17.0554 12 18.0444C12 19.0334 12.2107 19.9247 12.632 20.7183C13.059 21.5118 13.6545 22.1337 14.4185 22.5838C15.1882 23.0338 16.0421 23.2589 16.9803 23.2589H17.2163V25H18.7837V23.2589H19.0787C20 23.247 20.8371 23.019 21.5899 22.5749C22.3427 22.1248 22.9326 21.5 23.3596 20.7005C23.7865 19.901 24 19.0097 24 18.0266C24 17.0495 23.7865 16.1671 23.3596 15.3794C22.9382 14.5859 22.3455 13.964 21.5815 13.514C20.8174 13.0639 19.9719 12.8359 19.0449 12.8299ZM14.4691 15.2018C15.0871 14.5148 15.9242 14.1713 16.9803 14.1713H17.2163V21.9086H16.9972C15.9242 21.9086 15.0815 21.5711 14.4691 20.8959C13.8567 20.2149 13.5506 19.2644 13.5506 18.0444C13.5506 16.8304 13.8567 15.8828 14.4691 15.2018ZM18.7837 21.9086V14.1713H18.986C20.0815 14.1713 20.9298 14.5178 21.5309 15.2107C22.1376 15.9036 22.441 16.8422 22.441 18.0266C22.441 19.2229 22.1376 20.1705 21.5309 20.8693C20.9298 21.5622 20.0927 21.9086 19.0197 21.9086H18.7837Z" fill="#E2001A"/>
</svg>
