<svg width="36" height="36" viewBox="0 0 36 36" fill="none" xmlns="http://www.w3.org/2000/svg">
<circle cx="18" cy="18" r="12" fill="white"/>
<path fill-rule="evenodd" clip-rule="evenodd" d="M18 33C26.2843 33 33 26.2843 33 18C33 9.71573 26.2843 3 18 3C9.71573 3 3 9.71573 3 18C3 26.2843 9.71573 33 18 33ZM22.3883 20.9612C22.7678 20.0846 22.9575 19.0417 22.9575 17.8328V17.0334C22.9575 15.813 22.7536 14.7473 22.3458 13.8362C21.938 12.9195 21.3546 12.2176 20.5956 11.7305C19.8423 11.2435 18.9671 11 17.9703 11C16.996 11 16.1294 11.2464 15.3704 11.7391C14.6171 12.2262 14.0337 12.9309 13.6202 13.8534C13.2067 14.7759 13 15.8388 13 17.042V17.9445C13.0113 19.1248 13.2237 20.1648 13.6372 21.0643C14.0564 21.9582 14.6426 22.6486 15.3959 23.1357C16.1492 23.617 17.013 23.8576 17.9873 23.8576C18.4404 23.8576 18.8709 23.806 19.2787 23.7029L21.887 25.8L23 24.76L20.791 23.0067C21.4764 22.514 22.0088 21.8321 22.3883 20.9612ZM20.4511 13.6214C21.0346 14.4178 21.3263 15.5523 21.3263 17.0249V17.9531C21.3093 19.4027 21.0119 20.5172 20.4342 21.2964C19.8564 22.0699 19.0408 22.4567 17.9873 22.4567C16.9337 22.4567 16.1096 22.0441 15.5149 21.219C14.9258 20.394 14.6313 19.2652 14.6313 17.8328V16.9131C14.6483 15.5036 14.9513 14.4035 15.5404 13.6128C16.1351 12.8163 16.9451 12.4181 17.9703 12.4181C19.0464 12.4181 19.8734 12.8192 20.4511 13.6214Z" fill="#E2001A"/>
</svg>
