<svg width="36" height="36" viewBox="0 0 36 36" fill="none" xmlns="http://www.w3.org/2000/svg">
<circle cx="18" cy="18" r="12" fill="white"/>
<path fill-rule="evenodd" clip-rule="evenodd" d="M18 33C26.2843 33 33 26.2843 33 18C33 9.71573 26.2843 3 18 3C9.71573 3 3 9.71573 3 18C3 26.2843 9.71573 33 18 33ZM14.4187 17.0237C15.0951 17.6571 16.1727 18.1921 17.6512 18.6287C18.8305 18.9793 19.6446 19.336 20.0936 19.6988C20.5425 20.0555 20.767 20.5628 20.767 21.2209C20.767 21.8789 20.5246 22.3985 20.0397 22.7798C19.5548 23.1611 18.8574 23.3517 17.9475 23.3517C16.9718 23.3517 16.1906 23.118 15.604 22.6507C15.0233 22.1771 14.733 21.5345 14.733 20.7227H13C13 21.5037 13.2095 22.2017 13.6285 22.8167C14.0536 23.4317 14.6552 23.9175 15.4334 24.2742C16.2116 24.6247 17.0496 24.8 17.9475 24.8C19.3303 24.8 20.4348 24.4741 21.2609 23.8222C22.087 23.1642 22.5 22.2909 22.5 21.2024C22.5 20.5198 22.3503 19.9263 22.051 19.4221C21.7577 18.9178 21.3028 18.4781 20.6862 18.1029C20.0756 17.7217 19.2256 17.3742 18.1361 17.0606C17.0526 16.7469 16.2834 16.4025 15.8285 16.0274C15.3795 15.6461 15.155 15.1818 15.155 14.6345C15.155 13.9519 15.3915 13.4199 15.8644 13.0386C16.3433 12.6512 17.0077 12.4575 17.8577 12.4575C18.7736 12.4575 19.483 12.6912 19.9858 13.1586C20.4887 13.6198 20.7401 14.2563 20.7401 15.068H22.4731C22.4731 14.3239 22.2785 13.6382 21.8894 13.011C21.5063 12.3837 20.9616 11.8917 20.2552 11.535C19.5548 11.1783 18.7557 11 17.8577 11C16.5408 11 15.4693 11.3475 14.6432 12.0424C13.8231 12.7311 13.413 13.6044 13.413 14.6622C13.413 15.5969 13.7483 16.3841 14.4187 17.0237Z" fill="#E2001A"/>
</svg>
