<svg width="36" height="36" viewBox="0 0 36 36" fill="none" xmlns="http://www.w3.org/2000/svg">
<circle cx="18" cy="18" r="12" fill="white"/>
<path fill-rule="evenodd" clip-rule="evenodd" d="M18 33C26.2843 33 33 26.2843 33 18C33 9.71573 26.2843 3 18 3C9.71573 3 3 9.71573 3 18C3 26.2843 9.71573 33 18 33ZM24.2134 21.6273C24.6045 20.6576 24.8 19.5242 24.8 18.2273V17.3909C24.8 16.1 24.6045 14.9697 24.2134 14C23.8223 13.0242 23.2628 12.2818 22.5349 11.7727C21.8125 11.2576 20.976 11 20.0255 11C19.0912 11 18.2628 11.2606 17.5404 11.7818C16.818 12.297 16.2612 13.0273 15.8701 13.9727C15.4791 14.9121 15.2754 16.0061 15.2591 17.2545H13.5644V11H12V24.6H13.5644V18.6273H15.2672C15.3107 19.8333 15.5334 20.8879 15.9353 21.7909C16.3427 22.6939 16.9022 23.3879 17.6137 23.8727C18.3307 24.3576 19.1401 24.6 20.0418 24.6C20.9978 24.6 21.8342 24.3455 22.5512 23.8364C23.2682 23.3273 23.8223 22.5909 24.2134 21.6273ZM22.3964 13.7636C22.9613 14.6 23.2438 15.803 23.2438 17.3727V18.3545C23.2275 19.8879 22.9423 21.0667 22.3883 21.8909C21.8342 22.7091 21.0521 23.1182 20.0418 23.1182C19.0369 23.1182 18.2466 22.6848 17.6708 21.8182C17.1004 20.9455 16.8153 19.7485 16.8153 18.2273V17.2545C16.8316 15.7636 17.1222 14.6 17.6871 13.7636C18.2574 12.9212 19.0369 12.5 20.0255 12.5C21.0412 12.5 21.8315 12.9212 22.3964 13.7636Z" fill="#E2001A"/>
</svg>
