<svg width="704" height="444" viewBox="0 0 704 444" fill="none" xmlns="http://www.w3.org/2000/svg">
<path fill-rule="evenodd" clip-rule="evenodd" d="M163 48.5V295C163 299.535 153.893 307.627 145.395 315.177C137.964 321.78 131 327.968 131 331C131 333.893 135.203 333.434 140.422 332.864C146.93 332.154 155.017 331.271 158.5 336.5C167.052 349.338 155.5 386 155.5 386H108C96.0197 386 94.1696 363.927 92.8135 347.746C92.0189 338.266 91.3939 330.808 89 331C39 335 18 315.5 0.5 295V48.5C3.66667 32.3333 24.5 0 82.5 0C140.5 0 160.333 32.3333 163 48.5ZM74 64.5H89V281H74V64.5ZM362 7.5H435.5V336.5H362V7.5ZM182.5 64.5H253.5V288H272V64.5H344V336.5H272V321.5H263V336.5H211C182.5 336.5 182.5 288 182.5 288V64.5ZM534 64.5H454.5V336.5H534V64.5ZM454.5 48.5H528V7.5H454.5V48.5ZM609 64.5H552.5L578.5 196L552.5 336.5H609L618.5 246H627L636 336.5H702L668 196L691.5 64.5H636L627 147.5H618.5L609 64.5ZM338.379 416.145C340.658 418.423 341.797 421.548 341.797 425.52C341.797 429.556 340.43 432.779 337.695 435.188C334.993 437.596 331.396 438.801 326.904 438.801C321.761 438.801 317.676 437.368 314.648 434.504C311.621 431.639 310.107 427.701 310.107 422.688H304.541C304.541 427.049 305.501 430.842 307.422 434.064C309.375 437.255 312.061 439.712 315.479 441.438C318.929 443.13 322.738 443.977 326.904 443.977C333.089 443.977 338.053 442.284 341.797 438.898C345.573 435.48 347.461 430.988 347.461 425.422C347.461 421.939 346.81 418.911 345.508 416.34C344.206 413.768 342.188 411.538 339.453 409.65C336.719 407.73 332.682 405.891 327.344 404.133C322.005 402.342 318.115 400.308 315.674 398.029C313.232 395.751 312.012 392.821 312.012 389.24C312.012 385.399 313.298 382.274 315.869 379.865C318.473 377.424 322.021 376.203 326.514 376.203C331.136 376.203 334.782 377.684 337.451 380.646C340.153 383.576 341.504 387.434 341.504 392.219H347.119C347.119 385.969 345.199 380.858 341.357 376.887C337.516 372.915 332.568 370.93 326.514 370.93C320.589 370.93 315.755 372.639 312.012 376.057C308.268 379.475 306.396 383.902 306.396 389.338C306.396 394.839 308.301 399.266 312.109 402.619C315.007 405.191 319.548 407.518 325.732 409.602C331.917 411.685 336.133 413.866 338.379 416.145ZM399.557 371.906L381.832 410.578L364.205 371.906H357.662L379 416.242V443H384.566V416.242L405.953 371.906H399.557ZM449.602 416.145C451.88 418.423 453.02 421.548 453.02 425.52C453.02 429.556 451.652 432.779 448.918 435.188C446.216 437.596 442.619 438.801 438.127 438.801C432.984 438.801 428.898 437.368 425.871 434.504C422.844 431.639 421.33 427.701 421.33 422.688H415.764C415.764 427.049 416.724 430.842 418.645 434.064C420.598 437.255 423.283 439.712 426.701 441.438C430.152 443.13 433.96 443.977 438.127 443.977C444.312 443.977 449.276 442.284 453.02 438.898C456.796 435.48 458.684 430.988 458.684 425.422C458.684 421.939 458.033 418.911 456.73 416.34C455.428 413.768 453.41 411.538 450.676 409.65C447.941 407.73 443.905 405.891 438.566 404.133C433.228 402.342 429.338 400.308 426.896 398.029C424.455 395.751 423.234 392.821 423.234 389.24C423.234 385.399 424.52 382.274 427.092 379.865C429.696 377.424 433.244 376.203 437.736 376.203C442.359 376.203 446.005 377.684 448.674 380.646C451.376 383.576 452.727 387.434 452.727 392.219H458.342C458.342 385.969 456.421 380.858 452.58 376.887C448.739 372.915 443.791 370.93 437.736 370.93C431.812 370.93 426.978 372.639 423.234 376.057C419.491 379.475 417.619 383.902 417.619 389.338C417.619 394.839 419.523 399.266 423.332 402.619C426.229 405.191 430.77 407.518 436.955 409.602C443.14 411.685 447.355 413.866 449.602 416.145ZM495.838 377.18H516.053V371.906H470.057V377.18H490.223V443H495.838V377.18ZM537.094 408.967H564.682V403.791H537.094V377.18H568.588V371.906H531.527V443H568.832V437.824H537.094V408.967ZM614.141 434.455L592.607 371.906H585.234V443H590.801V411.994L590.312 381.477L611.992 443H616.289L638.066 381.184L637.578 412.189V443H643.145V371.906H635.771L614.141 434.455ZM694.02 416.145C696.298 418.423 697.438 421.548 697.438 425.52C697.438 429.556 696.07 432.779 693.336 435.188C690.634 437.596 687.037 438.801 682.545 438.801C677.402 438.801 673.316 437.368 670.289 434.504C667.262 431.639 665.748 427.701 665.748 422.688H660.182C660.182 427.049 661.142 430.842 663.062 434.064C665.016 437.255 667.701 439.712 671.119 441.438C674.57 443.13 678.378 443.977 682.545 443.977C688.73 443.977 693.694 442.284 697.438 438.898C701.214 435.48 703.102 430.988 703.102 425.422C703.102 421.939 702.451 418.911 701.148 416.34C699.846 413.768 697.828 411.538 695.094 409.65C692.359 407.73 688.323 405.891 682.984 404.133C677.646 402.342 673.756 400.308 671.314 398.029C668.873 395.751 667.652 392.821 667.652 389.24C667.652 385.399 668.938 382.274 671.51 379.865C674.114 377.424 677.662 376.203 682.154 376.203C686.777 376.203 690.423 377.684 693.092 380.646C695.794 383.576 697.145 387.434 697.145 392.219H702.76C702.76 385.969 700.839 380.858 696.998 376.887C693.157 372.915 688.209 370.93 682.154 370.93C676.23 370.93 671.396 372.639 667.652 376.057C663.909 379.475 662.037 383.902 662.037 389.338C662.037 394.839 663.941 399.266 667.75 402.619C670.647 405.191 675.188 407.518 681.373 409.602C687.558 411.685 691.773 413.866 694.02 416.145Z" fill="white"/>
</svg>
